<svg width="18.15" height="20.13" xmlns="http://www.w3.org/2000/svg">

 <g>
  <title>Layer 1</title>
  <path id="svg_1" d="m16.05769,2.02885l-4.18,0a2.988,2.988 0 0 0 -5.64,0l-4.18,0a2.006,2.006 0 0 0 -2,2l0,14a2.006,2.006 0 0 0 2,2l14,0a2.006,2.006 0 0 0 2,-2l0,-14a2.006,2.006 0 0 0 -2,-2zm-7,0a1,1 0 1 1 -1,1a1.003,1.003 0 0 1 1,-1zm-2,5l2.79,2.794l2.52,-2.52l-1.31,-1.274l4,0l0,4l-1.276,-1.311l-3.932,3.935l-2.792,-2.794l-2.586,2.584l-1.414,-1.414l4,-4zm9,10l-14,0l0,-2l14,0l0,2z" fill="#ffffff"/>
 </g>
</svg>