<svg width="957" height="252" xmlns="http://www.w3.org/2000/svg" xml:space="preserve" version="1.1">

 <g>
  <title>Layer 1</title>
  <path id="svg_1" fill="#2046c1" clip-rule="evenodd" fill-rule="evenodd" d="m371.55263,201.21579c0,27.6 -22.5,50 -50.3,50l-270,0c-27.8,0 -50.3,-22.4 -50.3,-50l0,-149.9c0,-27.6 22.5,-50 50.3,-50l270,0c27.8,0 50.3,22.4 50.3,50l0,149.9z"/>
  <path id="svg_2" fill="#ffffff" clip-rule="evenodd" fill-rule="evenodd" d="m484.05263,44.21579c4.9,1 9,2.3 12.1,3.7c0.7,0.4 0.9,0.8 0.8,1.2l-4.5,17.5c-0.3,0.8 -0.9,1 -1.8,0.6c-2.3,-1.1 -5.2,-2 -8.5,-2.9c-3.4,-0.9 -7.7,-1.3 -12.8,-1.3c-5.2,0 -9.8,0.8 -13.9,2.3c-4.1,1.5 -7.6,3.7 -10.5,6.5c-2.9,2.8 -5,6.1 -6.5,9.9c-1.5,3.8 -2.2,7.9 -2.2,12.3c0,5 0.8,9.4 2.5,13.2c1.7,3.8 4,7.1 7,9.8c3,2.7 6.5,4.7 10.5,6.1c4,1.4 8.3,2.1 12.9,2.1c5,0 9.4,-0.5 13,-1.5c3.7,-1 6.8,-2 9.6,-3.1c0.8,-0.3 1.4,0.1 1.6,1l3.5,17.1c0.3,0.5 0.1,0.9 -0.6,1.2c-2.7,1.3 -6.8,2.7 -12.4,4c-5.6,1.3 -12,2 -19.3,2c-8.4,0 -16,-1.2 -22.7,-3.7c-6.7,-2.5 -12.4,-5.9 -17.2,-10.4c-4.7,-4.4 -8.4,-9.7 -11,-15.9c-2.6,-6.2 -3.9,-13 -3.9,-20.5c0,-7.4 1.3,-14.3 4,-20.8c2.6,-6.4 6.5,-12.1 11.5,-16.8c5,-4.8 11.2,-8.5 18.5,-11.2c7.3,-2.7 15.6,-4 24.8,-4c5.3,0.1 10.5,0.6 15.5,1.6zm80,102.6c0,0.7 -0.4,1 -1.2,1c-3,0 -6,-0.2 -9.2,-0.7c-3.2,-0.5 -6.3,-1.2 -9.4,-2.1c-3.1,-0.9 -6.1,-2.2 -9,-3.7c-2.9,-1.5 -5.4,-3.5 -7.6,-5.7c-4.7,-4.7 -8,-10.6 -9.9,-17.7c-1.9,-7.1 -2.8,-15.6 -2.8,-25.4l0,-89.6c0,-0.8 0.4,-1.2 1.2,-1.2l23.7,0c0.8,0 1.2,0.4 1.2,1.2l0,81.6c0,5.6 0.1,10.4 0.4,14.4c0.3,4 0.6,7.3 1.1,10c0.5,2.7 1.1,4.9 1.9,6.5c0.8,1.7 1.8,3.1 3,4.3c2.2,2.2 4.9,3.8 8.1,4.8c3.2,1.1 6.5,1.8 9.7,2c0.8,0 1.2,0.5 1.2,1.4l-2.4,18.9zm76.3,-50.3c-5,0 -9.7,0.3 -14.2,0.8s-8.4,1.5 -11.8,2.8c-3.4,1.4 -6.1,3.2 -8.1,5.5s-3,5.1 -3,8.5c0,4.3 1.3,7.6 4,9.8c2.7,2.2 6.2,3.3 10.5,3.3c5.6,0 10.4,-1.5 14.1,-4.4c3.8,-3 6.3,-6.1 7.7,-9.5c0.5,-1.6 0.8,-3.3 0.8,-5.1l0,-11.7zm6,49.5c-0.7,0 -1.1,-0.3 -1.4,-1l-3.4,-12.5l-1.2,1.2c-1.9,1.5 -4.3,3.3 -7.2,5.6c-2.9,2.2 -5.8,3.8 -8.8,4.8c-4.2,1.4 -8.1,2 -11.9,2c-1.9,0 -3.8,-0.1 -5.9,-0.4c-2,-0.3 -4.2,-0.6 -6.5,-1c-3.8,-0.7 -7.1,-2 -9.9,-3.8c-2.8,-1.9 -5.2,-4.1 -7.2,-6.7c-2,-2.6 -3.4,-5.4 -4.4,-8.4c-1,-3 -1.5,-6 -1.5,-9c0,-12.4 5.3,-21.8 15.8,-28.2c10.6,-6.4 26.1,-9.6 46.7,-9.6l0,-0.2c0,-1.2 -0.2,-2.8 -0.6,-4.9c-0.4,-2 -1.3,-3.9 -2.7,-5.8c-1.4,-1.8 -3.5,-3.4 -6.4,-4.7c-2.8,-1.3 -6.7,-1.9 -11.5,-1.9c-1.5,0 -3.1,0.1 -4.7,0.3c-1.7,0.2 -3.3,0.4 -4.9,0.7c-0.9,0.3 -1.4,-0.1 -1.4,-1c-0.1,-0.9 -0.4,-2.8 -0.9,-5.5s-0.9,-5.1 -1.2,-7.1c-0.3,-2 -0.5,-3.2 -0.5,-3.4c0,-0.7 0.3,-1.1 1,-1.4c2.4,-0.4 5,-0.7 7.8,-1c2.8,-0.3 5.7,-0.4 8.8,-0.4c8.5,0 15.5,1.3 21,3.7c5.5,2.5 9.9,5.7 13.2,9.7c3.3,4 5.6,8.5 6.9,13.7c1.3,5.1 1.9,10.3 1.9,15.6l0,33.8c0,4.3 0.3,8.6 0.8,12.7c0.5,4.2 1.1,7.8 1.8,10.7c0.3,0.9 -0.1,1.4 -1,1.4l-20.6,2zm111.7,-19c-1.8,3.8 -4.5,7.2 -8,10c-3.6,2.8 -8.1,5 -13.5,6.6c-5.4,1.6 -11.7,2.4 -18.9,2.4c-6.6,0 -12.7,-0.7 -18.3,-2.1c-5.6,-1.4 -10.4,-3.2 -14.5,-5.3c-0.7,-0.3 -0.9,-0.7 -0.6,-1.2l5.2,-17.3c0.3,-0.9 0.9,-1.1 1.9,-0.6c2.9,1.9 6.8,3.6 11.9,5.1c5,1.5 9.9,2.3 14.7,2.3c6.1,0 10.4,-1 13,-2.9c2.6,-1.9 3.9,-4.5 3.9,-7.6c0,-3.2 -1.4,-5.8 -4.1,-7.8c-2.8,-1.9 -7.2,-3.9 -13.4,-5.7c-10.3,-3.1 -17.9,-7.2 -22.7,-12.2c-4.8,-5 -7.2,-10.6 -7.2,-16.8c0,-4.3 0.9,-8.4 2.8,-12.2c1.9,-3.8 4.5,-7.2 7.8,-10c3.4,-2.8 7.5,-5 12.5,-6.6c4.9,-1.6 10.6,-2.4 16.9,-2.4c5.9,0 11.3,0.6 16.3,1.8c5,1.2 9,2.7 12.2,4.4c0.7,0.4 0.9,0.9 0.6,1.4l-4.7,16.5c-0.3,0.8 -0.9,0.9 -1.9,0.4c-2.2,-1.1 -5.3,-2.3 -9.3,-3.7c-4,-1.4 -8.4,-2.1 -13.2,-2.1c-4.7,0 -8.2,0.9 -10.6,2.8c-2.4,1.9 -3.6,4.2 -3.6,7c0,3.2 1.5,5.7 4.5,7.5c3,1.8 7.7,3.6 14,5.6c9.8,3.1 17,7 21.9,11.7c4.8,4.7 7.2,10.9 7.2,18.5c-0.2,4.5 -1.1,8.7 -2.8,12.5zm52.9,-64.1c-3,1.4 -5.6,3.2 -7.6,5.3c-2,2.1 -3.6,4.5 -4.7,7.2c-1.1,2.6 -1.8,5.1 -2.2,7.6l48.2,0c-0.1,-1.7 -0.5,-3.9 -1.2,-6.4c-0.7,-2.5 -1.9,-5 -3.5,-7.4c-1.7,-2.3 -4,-4.3 -6.9,-5.9c-2.9,-1.6 -6.7,-2.4 -11.2,-2.4c-4.2,-0.1 -7.8,0.6 -10.9,2zm58.2,33.9c-0.1,1.7 -0.3,3 -0.6,3.9c-0.3,0.7 -0.7,1 -1.2,1l-71.1,0c0.5,3.6 1.8,6.9 3.8,9.9c2,3 4.5,5.5 7.4,7.6c2.9,2.1 6.2,3.7 9.8,4.9c3.6,1.2 7.4,1.8 11.3,1.8c4.3,0 8.3,-0.2 12,-0.6c0.9,0 1.4,0.3 1.4,0.8l2.6,17.1c0,0.7 -0.3,1.1 -1,1.4c-2.8,0.7 -5.8,1.1 -8.8,1.2c-3,0.1 -6.1,0.2 -9.2,0.2c-8.5,0 -16.1,-1.2 -22.9,-3.6c-6.7,-2.4 -12.5,-5.8 -17.1,-10.2c-4.7,-4.4 -8.2,-9.6 -10.6,-15.8c-2.4,-6.2 -3.6,-13 -3.6,-20.5c0,-6.6 1.1,-13.1 3.2,-19.4c2.2,-6.4 5.4,-12.1 9.7,-17.1c4.3,-5 9.7,-9.1 16.2,-12.1s14,-4.5 22.7,-4.5c9.1,0 16.5,1.6 22.5,4.9c5.9,3.3 10.7,7.4 14.2,12.2c3.5,4.8 6,10.1 7.4,15.7c1.4,5.6 2.1,10.8 2.1,15.5c0,2.1 0,4 -0.2,5.7zm83.2,30.3c-1.8,3.9 -4.5,7.2 -8.1,10.1c-3.6,2.8 -8.1,5.1 -13.5,6.7c-5.4,1.6 -11.8,2.4 -18.9,2.4c-6.6,0 -12.7,-0.7 -18.3,-2.1c-5.6,-1.4 -10.4,-3.2 -14.6,-5.4c-0.7,-0.3 -0.9,-0.7 -0.6,-1.2l5.2,-17.5c0.3,-0.9 0.9,-1.1 1.9,-0.6c2.9,1.9 6.9,3.6 11.9,5.2s10,2.3 14.8,2.3c6.1,0 10.4,-1 13,-2.9c2.6,-2 3.9,-4.5 3.9,-7.6c0,-3.3 -1.4,-5.9 -4.1,-7.8c-2.8,-2 -7.2,-3.9 -13.4,-5.8c-10.3,-3.1 -17.9,-7.2 -22.7,-12.3c-4.8,-5.1 -7.2,-10.7 -7.2,-17c0,-4.3 0.9,-8.4 2.8,-12.3c1.9,-3.9 4.5,-7.2 7.9,-10.1c3.4,-2.9 7.5,-5.1 12.5,-6.7c5,-1.6 10.6,-2.4 17,-2.4c5.9,0 11.4,0.6 16.3,1.8c5,1.2 9,2.7 12.2,4.5c0.7,0.4 0.9,0.9 0.6,1.4l-4.8,16.7c-0.3,0.8 -0.9,1 -1.9,0.4c-2.2,-1.1 -5.3,-2.3 -9.3,-3.8c-4,-1.4 -8.4,-2.1 -13.2,-2.1c-4.7,0 -8.2,1 -10.7,2.8c-2.4,1.9 -3.6,4.3 -3.6,7.1c0,3.3 1.5,5.8 4.6,7.5c3,1.8 7.7,3.7 14.1,5.7c9.8,3.1 17.1,7 21.9,11.8c4.8,4.7 7.2,11 7.2,18.7c-0.2,4.5 -1.1,8.6 -2.9,12.5z" class="st1"/>
  <path id="svg_3" fill="#fbfafc" clip-rule="evenodd" fill-rule="evenodd" d="m203.55263,200.81579c-0.8,0 -1.4,-0.4 -1.7,-1.2c0,-0.2 -0.2,-1 -0.5,-2.4s-0.7,-3.1 -1.1,-4.9c-0.4,-1.8 -0.7,-3.1 -0.8,-3.9c-0.3,-1.1 -0.5,-2.8 -0.6,-5c-0.1,-2.2 -0.1,-3.7 -0.1,-4.5c-1.4,2.4 -3.3,4.8 -5.5,7.3s-5,4.7 -8.4,6.8c-3.4,2.1 -7.2,3.8 -11.6,5.1c-4.4,1.3 -9.5,2 -15.2,2c-5.3,0 -10.6,-0.8 -15.8,-2.4c-5.3,-1.6 -10.1,-4.3 -14.4,-8.2c-4.3,-3.9 -7.8,-9.3 -10.6,-16.1c-2.7,-6.8 -4.1,-15.5 -4.1,-26l0,-65.6c0,-1 0.5,-1.4 1.4,-1.4l27.8,0c1,0 1.4,0.5 1.4,1.4l0,60.5c0,10 1.8,17.9 5.5,23.7c3.7,5.8 9.8,8.7 18.5,8.7c6.4,0 11.8,-1.8 16.3,-5.4c4.5,-3.6 7.6,-7.4 9.4,-11.6l-0.2,0c0.5,-1.3 0.9,-2.6 1.2,-4.1c0.3,-1.4 0.5,-3 0.5,-4.8l0,-67.3c0,-1 0.5,-1.4 1.4,-1.4l28.1,0c1,0 1.4,0.5 1.4,1.4l0,80.6c0,6.7 0.3,12.8 1,18.5c0.6,5.6 1.4,10.5 2.4,14.7c0.3,0.8 -0.1,1.3 -1.2,1.7l-24.5,3.8zm136.8,-22.6c-2.1,4.5 -5.3,8.5 -9.5,11.8c-4.2,3.3 -9.6,6 -16,7.9c-6.4,1.9 -13.9,2.9 -22.4,2.9c-7.8,0 -15.1,-0.8 -21.7,-2.5s-12.4,-3.8 -17.2,-6.3c-0.8,-0.3 -1.1,-0.8 -0.7,-1.4l6.1,-20.6c0.3,-1.1 1.1,-1.4 2.2,-0.7c3.4,2.2 8.1,4.3 14.1,6.1c6,1.8 11.8,2.7 17.5,2.7c7.2,0 12.3,-1.2 15.4,-3.5c3.1,-2.3 4.6,-5.3 4.6,-9c0,-3.8 -1.6,-6.9 -4.9,-9.2c-3.3,-2.3 -8.6,-4.6 -15.9,-6.8c-12.2,-3.7 -21.2,-8.5 -26.9,-14.5c-5.7,-6 -8.6,-12.6 -8.6,-20c0,-5.1 1.1,-9.9 3.3,-14.5c2.2,-4.5 5.3,-8.5 9.3,-11.8c4,-3.3 8.9,-6 14.8,-7.9c5.9,-1.9 12.6,-2.9 20.1,-2.9c7,0 13.5,0.7 19.3,2.1c5.9,1.4 10.7,3.2 14.4,5.3c0.8,0.5 1.1,1 0.7,1.7l-5.6,19.6c-0.3,0.9 -1.1,1.1 -2.2,0.5c-2.6,-1.3 -6.3,-2.7 -11,-4.4c-4.7,-1.7 -9.9,-2.5 -15.7,-2.5c-5.5,0 -9.7,1.1 -12.6,3.4c-2.9,2.2 -4.3,5 -4.3,8.4c0,3.8 1.8,6.8 5.4,8.8c3.6,2.1 9.1,4.3 16.6,6.7c11.6,3.7 20.2,8.3 25.9,13.9c5.7,5.6 8.6,12.9 8.6,22c0.1,5.3 -1,10.2 -3.1,14.7zm-257.1,39.5c-24.1,-8.9 -45.7,-23 -45.7,-55.6l0,-58.6l-17.5,0l0,-26.2l17.5,0l0,-30.9l34.5,0l0,30.9l22.3,0l0,26.2l-22.3,0l0,62c0,14.6 6.6,19.8 24.1,24.7l-12.9,27.5z" class="st2"/>
  <path id="svg_4" fill="#ffffff" clip-rule="evenodd" fill-rule="evenodd" d="m432.65263,190.71579c-1.3,0.4 -2.6,1.1 -3.7,2c-1.1,0.9 -2.1,1.9 -2.8,3.1c-0.8,1.2 -1.4,2.6 -1.8,4c-0.3,1.1 -0.5,2.2 -0.5,3l0,6.1c0,1 0.1,2 0.3,3c0.3,1.2 0.8,2.4 1.5,3.5s1.7,2.2 2.7,3c1,0.9 2.2,1.6 3.6,2.1c1.3,0.5 2.8,0.8 4.4,0.8c4.2,0 7.6,-1.4 10.1,-4.3s3.7,-6.8 3.7,-11.9c0,-2 -0.3,-4 -0.9,-5.8c-0.6,-1.9 -1.5,-3.5 -2.6,-4.9c-1.1,-1.4 -2.5,-2.5 -4.2,-3.3c-1.7,-0.8 -3.6,-1.2 -5.7,-1.2c-1.4,0.1 -2.7,0.3 -4.1,0.8zm28.1,25.7c-1.4,3.4 -3.2,6.2 -5.4,8.4c-2.3,2.2 -4.8,3.9 -7.6,5.1c-2.8,1.1 -5.8,1.7 -8.8,1.7c-3.1,0 -5.9,-0.6 -8.6,-1.7c-2.7,-1.1 -4.9,-2.7 -6.6,-4.7c-0.1,1.2 -0.3,3 -0.6,5.4c-0.3,2.4 -0.6,4.8 -0.8,7.3c-0.3,2.5 -0.5,4.8 -0.7,6.9c-0.2,2.1 -0.3,3.6 -0.3,4.3c0,1 -0.5,1.6 -1.4,1.9c-0.9,0.2 -1.8,0.3 -2.5,0.2c-0.8,-0.1 -1.2,-0.2 -1.4,-0.3c-0.9,-0.1 -1.8,-0.2 -2.8,-0.3l-2.7,-0.3c-0.5,0 -0.7,-0.2 -0.6,-0.7c0.3,-2.2 0.6,-3.9 0.7,-5.3c0.2,-1.4 0.3,-2.8 0.5,-4.1c0.2,-1.4 0.2,-2.3 0.2,-2.9l0,-13.9c0,-3 0,-6 -0.1,-9l0,-16.7c0,-3 0,-5.7 -0.1,-8.1c-0.1,-2.4 -0.2,-4.8 -0.3,-7.1c0,-0.4 0.2,-0.6 0.5,-0.6l10.2,-1.9c0.4,-0.1 0.6,0.1 0.6,0.5l0.7,7.6c2,-2.5 4.5,-4.5 7.5,-6s6.4,-2.3 10.3,-2.3c2.9,0 5.7,0.6 8.4,1.7s5,2.8 7,5s3.6,4.8 4.8,7.9c1.2,3.1 1.8,6.5 1.8,10.4c0.2,4.3 -0.5,8.2 -1.9,11.6zm42.2,-8.7c-2.4,0 -4.8,0.1 -7,0.4c-2.2,0.3 -4.1,0.7 -5.8,1.4c-1.6,0.6 -3,1.5 -4,2.6s-1.5,2.5 -1.5,4.1c0,2.1 0.7,3.7 2,4.7c1.3,1.1 3,1.6 5.1,1.6c2.8,0 5.1,-0.7 6.9,-2.1c1.8,-1.4 3.1,-3 3.8,-4.6c0.3,-0.8 0.4,-1.6 0.4,-2.4l0,-5.7l0.1,0zm3,23.9c-0.3,0 -0.6,-0.2 -0.7,-0.5l-1.7,-6.1l-0.6,0.6c-0.9,0.7 -2.1,1.6 -3.5,2.7s-2.8,1.8 -4.3,2.3c-2,0.7 -4,1 -5.8,1c-0.9,0 -1.9,-0.1 -2.9,-0.2s-2,-0.3 -3.2,-0.5c-1.8,-0.3 -3.5,-0.9 -4.8,-1.9c-1.4,-0.9 -2.6,-2 -3.5,-3.2c-1,-1.2 -1.7,-2.6 -2.2,-4.1c-0.5,-1.5 -0.7,-2.9 -0.7,-4.3c0,-6 2.6,-10.5 7.8,-13.6c5.2,-3.1 12.8,-4.6 22.9,-4.6l0,-0.1c0,-0.6 -0.1,-1.4 -0.3,-2.3c-0.2,-1 -0.6,-1.9 -1.3,-2.8c-0.7,-0.9 -1.7,-1.6 -3.1,-2.2c-1.4,-0.6 -3.3,-0.9 -5.6,-0.9c-0.7,0 -1.5,0 -2.3,0.1l-2.4,0.3c-0.5,0.1 -0.7,0 -0.7,-0.5c-0.1,-0.5 -0.2,-1.3 -0.4,-2.6s-0.4,-2.4 -0.6,-3.4c-0.2,-1 -0.2,-1.5 -0.2,-1.7c0,-0.3 0.2,-0.6 0.5,-0.7c1.2,-0.2 2.5,-0.4 3.8,-0.5c1.4,-0.1 2.8,-0.2 4.3,-0.2c4.2,0 7.6,0.6 10.3,1.8c2.7,1.2 4.9,2.8 6.5,4.7c1.6,1.9 2.7,4.1 3.4,6.6c0.6,2.5 0.9,5 0.9,7.5l0,16.3c0,2.1 0.1,4.1 0.4,6.2c0.3,2 0.6,3.7 0.9,5.2c0.1,0.5 0,0.7 -0.5,0.7l-10.4,0.9zm49.1,-39.6c-1.1,-0.2 -2.3,-0.3 -3.6,-0.3c-2.9,0 -5.3,0.9 -7.2,2.7c-1.9,1.8 -3.1,4 -3.8,6.7c-0.1,0.5 -0.2,1.1 -0.2,1.7l0,26.3c0,0.4 -0.2,0.6 -0.6,0.6l-11.4,0c-0.4,0 -0.6,-0.2 -0.6,-0.6l0,-31.7c0,-3.4 0,-6.3 -0.1,-8.8c-0.1,-2.5 -0.2,-4.9 -0.3,-7.1c0,-0.4 0.2,-0.6 0.6,-0.6l10,0c0.4,0 0.6,0.2 0.6,0.6l0.5,7.2c1.5,-3 3.5,-5.2 6,-6.7s5,-2.2 7.5,-2.2l1.6,0c0.4,0 0.9,0.1 1.4,0.2c0.3,0.1 0.4,0.2 0.4,0.5l0,10.9l-0.8,0.6zm7.7,-11.8c0.1,-0.1 0.3,-0.2 0.4,-0.2l5.5,0l0,-8.6c0,-0.3 0.1,-0.5 0.4,-0.6l11.1,-3.3c0.5,-0.1 0.8,0.1 0.8,0.6l0,11.9l11.7,0c0.4,0 0.6,0.2 0.6,0.6l-0.5,9c0,0.4 -0.2,0.6 -0.6,0.6l-11.2,0l0,21.2c0,2.8 0.4,5 1.2,6.7c0.8,1.6 2.4,2.5 4.7,2.5c1.2,0 2.1,-0.1 2.8,-0.2c0.7,-0.1 1.4,-0.3 2.1,-0.6c0.5,-0.1 0.8,0.1 0.8,0.6l0.3,9c0,0.3 -0.1,0.5 -0.4,0.6c-0.9,0.4 -2.2,0.8 -3.7,1c-1.6,0.3 -3.4,0.4 -5.3,0.4c-2.4,0 -4.5,-0.4 -6.4,-1.2c-1.8,-0.8 -3.3,-1.9 -4.4,-3.2c-1.4,-1.6 -2.4,-3.6 -3,-6c-0.7,-2.4 -1,-5.1 -1,-8.2l0,-22.5l-7,0c-0.1,0 -0.3,0 -0.4,-0.1c-0.1,-0.1 -0.2,-0.2 -0.2,-0.3l0,-8.1c0,-0.7 0,-1.1 0.1,-1.1l1.6,-0.5zm41,49.6c-0.4,0 -0.6,-0.2 -0.6,-0.6l0,-48.7c0,-0.4 0.2,-0.6 0.6,-0.6l11,0c0.4,0 0.6,0.2 0.6,0.6l0,48.7c0,0.4 -0.2,0.6 -0.6,0.6l-11,0zm10.7,-58.8c-1.3,1.5 -3,2.2 -5.3,2.2c-2.2,0 -3.9,-0.7 -5.2,-2.2c-1.2,-1.5 -1.9,-3.2 -1.9,-5.1c0,-2 0.6,-3.7 1.9,-5.1c1.3,-1.5 3,-2.2 5.2,-2.2s3.9,0.7 5.2,2.1c1.2,1.4 1.9,3.2 2,5.2c0,1.9 -0.6,3.6 -1.9,5.1zm47.2,11.4c2.4,0.5 4.4,1.1 5.9,1.8c0.3,0.2 0.5,0.4 0.4,0.6l-2.2,8.5c-0.1,0.4 -0.4,0.5 -0.9,0.3c-1.1,-0.5 -2.5,-1 -4.2,-1.4c-1.7,-0.4 -3.8,-0.6 -6.3,-0.6s-4.8,0.4 -6.8,1.1c-2,0.7 -3.7,1.8 -5.1,3.2c-1.4,1.4 -2.5,3 -3.2,4.8c-0.7,1.8 -1.1,3.8 -1.1,5.9c0,2.4 0.4,4.5 1.2,6.4c0.8,1.8 2,3.4 3.4,4.7c1.5,1.3 3.2,2.3 5.1,3c2,0.7 4.1,1 6.3,1c2.5,0 4.6,-0.2 6.4,-0.7c1.8,-0.5 3.4,-1 4.7,-1.5c0.4,-0.1 0.7,0 0.8,0.5l1.7,8.3c0.1,0.3 0,0.5 -0.3,0.6c-1.3,0.7 -3.4,1.3 -6.1,1.9c-2.7,0.7 -5.9,1 -9.5,1c-4.1,0 -7.8,-0.6 -11.1,-1.8c-3.3,-1.2 -6.1,-2.9 -8.4,-5c-2.3,-2.1 -4.1,-4.7 -5.4,-7.7c-1.3,-3 -1.9,-6.3 -1.9,-9.9c0,-3.6 0.6,-6.9 1.9,-10c1.3,-3.1 3.2,-5.8 5.6,-8.1c2.5,-2.3 5.5,-4.1 9.1,-5.4c3.6,-1.3 7.6,-1.9 12.2,-1.9c2.9,-0.3 5.4,-0.1 7.8,0.4zm54.5,49.2c-0.3,0 -0.6,-0.2 -0.7,-0.5c0,-0.1 -0.1,-0.4 -0.2,-1s-0.3,-1.3 -0.4,-2c-0.2,-0.8 -0.3,-1.3 -0.3,-1.6c-0.1,-0.5 -0.2,-1.2 -0.2,-2.1l0,-1.9c-0.6,1 -1.4,2 -2.3,3c-0.9,1 -2.1,2 -3.5,2.8c-1.4,0.9 -3,1.6 -4.8,2.1c-1.8,0.6 -3.9,0.8 -6.3,0.8c-2.2,0 -4.4,-0.3 -6.6,-1c-2.2,-0.7 -4.2,-1.8 -6,-3.4c-1.8,-1.6 -3.2,-3.8 -4.4,-6.7c-1.1,-2.8 -1.7,-6.4 -1.7,-10.8l0,-27c0,-0.4 0.2,-0.6 0.6,-0.6l11.5,0c0.4,0 0.6,0.2 0.6,0.6l0,25.1c0,4.1 0.8,7.4 2.3,9.8c1.5,2.4 4.1,3.6 7.6,3.6c2.7,0 4.9,-0.7 6.8,-2.2c1.8,-1.5 3.1,-3.1 3.9,-4.8l-0.1,0c0.2,-0.5 0.4,-1.1 0.5,-1.7c0.1,-0.6 0.2,-1.2 0.2,-2l0,-27.8c0,-0.4 0.2,-0.6 0.6,-0.6l11.6,0c0.4,0 0.6,0.2 0.6,0.6l0,33.4c0,2.8 0.1,5.3 0.4,7.7c0.3,2.3 0.6,4.4 1,6.1c0.1,0.3 0,0.6 -0.5,0.7l-10.2,1.4zm46.9,-0.5c0,0.3 -0.2,0.5 -0.6,0.5c-1.4,0 -2.9,-0.1 -4.5,-0.4c-1.5,-0.2 -3,-0.6 -4.5,-1.1c-1.5,-0.5 -3,-1.1 -4.4,-1.9c-1.4,-0.8 -2.6,-1.7 -3.7,-2.9c-2.3,-2.4 -3.9,-5.3 -4.8,-8.9c-0.9,-3.6 -1.4,-7.8 -1.4,-12.7l0,-44.7c0,-0.4 0.2,-0.6 0.6,-0.6l11.4,0c0.4,0 0.6,0.2 0.6,0.6l0,40.8c0,2.8 0.1,5.2 0.2,7.2s0.3,3.6 0.5,5c0.2,1.3 0.5,2.4 0.9,3.3c0.4,0.8 0.9,1.6 1.5,2.2c1,1.1 2.3,1.9 3.9,2.4s3.1,0.9 4.7,1c0.4,0 0.6,0.2 0.6,0.7l-1,9.5zm34,-23.4c-2.4,0 -4.8,0.1 -7,0.4c-2.2,0.3 -4.1,0.7 -5.8,1.4c-1.7,0.6 -3,1.5 -4,2.6s-1.5,2.5 -1.5,4.1c0,2.1 0.7,3.7 2,4.7c1.3,1.1 3,1.6 5.1,1.6c2.8,0 5.1,-0.7 6.9,-2.1c1.8,-1.4 3.1,-3 3.8,-4.6c0.3,-0.8 0.4,-1.6 0.4,-2.4l0,-5.7l0.1,0zm2.9,23.9c-0.3,0 -0.6,-0.2 -0.7,-0.5l-1.7,-6.1l-0.6,0.6c-0.9,0.7 -2.1,1.6 -3.5,2.7s-2.9,1.8 -4.3,2.3c-2,0.7 -4,1 -5.8,1c-0.9,0 -1.9,-0.1 -2.9,-0.2s-2,-0.3 -3.2,-0.5c-1.8,-0.3 -3.5,-0.9 -4.8,-1.9c-1.4,-0.9 -2.6,-2 -3.5,-3.2c-1,-1.2 -1.7,-2.6 -2.2,-4.1c-0.5,-1.5 -0.7,-2.9 -0.7,-4.3c0,-6 2.6,-10.5 7.8,-13.6c5.2,-3.1 12.8,-4.6 22.9,-4.6l0,-0.1c0,-0.6 -0.1,-1.4 -0.3,-2.3c-0.2,-1 -0.6,-1.9 -1.3,-2.8c-0.7,-0.9 -1.7,-1.6 -3.1,-2.2c-1.4,-0.6 -3.3,-0.9 -5.6,-0.9c-0.7,0 -1.5,0 -2.3,0.1l-2.4,0.3c-0.5,0.1 -0.7,0 -0.7,-0.5c-0.1,-0.5 -0.2,-1.3 -0.4,-2.6s-0.4,-2.4 -0.6,-3.4c-0.2,-1 -0.2,-1.5 -0.2,-1.7c0,-0.3 0.2,-0.6 0.5,-0.7c1.2,-0.2 2.5,-0.4 3.8,-0.5c1.3,-0.1 2.8,-0.2 4.3,-0.2c4.1,0 7.6,0.6 10.3,1.8c2.7,1.2 4.9,2.8 6.5,4.7c1.6,1.9 2.7,4.1 3.4,6.6c0.6,2.5 0.9,5 0.9,7.5l0,16.3c0,2.1 0.1,4.1 0.4,6.2c0.3,2 0.6,3.7 0.9,5.2c0.1,0.5 0,0.7 -0.5,0.7l-10.4,0.9zm52.7,-39.6c-1.1,-0.2 -2.3,-0.3 -3.6,-0.3c-2.9,0 -5.3,0.9 -7.2,2.7c-1.9,1.8 -3.1,4 -3.8,6.7c-0.1,0.5 -0.2,1.1 -0.2,1.7c0,0.6 -0.1,1.2 -0.1,1.6l0,24.7c0,0.4 -0.2,0.6 -0.6,0.6l-11.4,0c-0.4,0 -0.6,-0.2 -0.6,-0.6l0,-31.7c0,-3.4 0,-6.3 -0.1,-8.8c-0.1,-2.5 -0.2,-4.9 -0.3,-7.1c0,-0.4 0.2,-0.6 0.6,-0.6l10,0c0.4,0 0.6,0.2 0.6,0.6l0.5,7.2c1.5,-3 3.5,-5.2 6,-6.7s5,-2.2 7.5,-2.2l1.6,0c0.4,0 0.9,0.1 1.4,0.2c0.3,0.1 0.4,0.2 0.4,0.5l0,10.9l-0.7,0.6zm23.7,-0.5c-1.5,0.7 -2.7,1.5 -3.7,2.6c-1,1 -1.8,2.2 -2.3,3.5c-0.5,1.3 -0.9,2.5 -1.1,3.6l23.7,0c-0.1,-0.8 -0.3,-1.9 -0.6,-3.1c-0.3,-1.2 -0.9,-2.4 -1.7,-3.6c-0.8,-1.1 -2,-2.1 -3.4,-2.9c-1.4,-0.8 -3.3,-1.2 -5.5,-1.2c-2.1,0 -3.9,0.4 -5.4,1.1zm28.6,16.3c-0.1,0.8 -0.2,1.4 -0.3,1.9c-0.1,0.3 -0.3,0.5 -0.6,0.5l-34.9,0c0.3,1.8 0.9,3.3 1.9,4.8c1,1.4 2.2,2.6 3.6,3.6s3,1.8 4.8,2.4c1.8,0.6 3.6,0.9 5.6,0.9c2.1,0 4.1,-0.1 5.9,-0.3c0.5,0 0.7,0.1 0.7,0.4l1.3,8.3c0,0.3 -0.2,0.5 -0.5,0.7c-1.4,0.3 -2.8,0.5 -4.3,0.6c-1.5,0.1 -3,0.1 -4.5,0.1c-4.2,0 -7.9,-0.6 -11.2,-1.8c-3.3,-1.2 -6.1,-2.8 -8.4,-4.9c-2.3,-2.1 -4,-4.6 -5.2,-7.6c-1.2,-3 -1.8,-6.3 -1.8,-9.9c0,-3.2 0.5,-6.3 1.6,-9.4c1.1,-3.1 2.7,-5.8 4.8,-8.3c2.1,-2.4 4.8,-4.4 7.9,-5.8c3.2,-1.5 6.9,-2.2 11.1,-2.2c4.4,0 8.1,0.8 11,2.4c2.9,1.6 5.2,3.5 7,5.9c1.7,2.3 2.9,4.9 3.6,7.6c0.7,2.7 1,5.2 1,7.5c0,0.9 -0.1,1.8 -0.1,2.6zm45.1,14.6c-0.9,1.8 -2.2,3.5 -3.9,4.8c-1.8,1.4 -3.9,2.4 -6.6,3.2c-2.7,0.8 -5.7,1.2 -9.2,1.2c-3.2,0 -6.2,-0.3 -8.9,-1s-5.1,-1.5 -7.1,-2.6c-0.3,-0.1 -0.4,-0.3 -0.3,-0.6l2.5,-8.4c0.1,-0.5 0.4,-0.5 0.9,-0.3c1.4,0.9 3.3,1.7 5.8,2.5c2.5,0.7 4.9,1.1 7.2,1.1c2.9,0 5.1,-0.5 6.3,-1.4c1.3,-0.9 1.9,-2.2 1.9,-3.6c0,-1.6 -0.7,-2.8 -2,-3.7c-1.3,-0.9 -3.5,-1.9 -6.5,-2.8c-5,-1.5 -8.7,-3.4 -11.1,-5.9c-2.4,-2.4 -3.5,-5.1 -3.5,-8.1c0,-2.1 0.4,-4 1.3,-5.9c0.9,-1.9 2.2,-3.5 3.8,-4.8c1.6,-1.4 3.7,-2.4 6.1,-3.2c2.4,-0.8 5.2,-1.2 8.3,-1.2c2.9,0 5.5,0.3 8,0.9c2.4,0.6 4.4,1.3 5.9,2.1c0.3,0.2 0.4,0.4 0.3,0.7l-2.3,8c-0.1,0.4 -0.4,0.5 -0.9,0.2c-1.1,-0.5 -2.6,-1.1 -4.5,-1.8s-4.1,-1 -6.4,-1c-2.3,0 -4,0.5 -5.2,1.4c-1.2,0.9 -1.8,2 -1.8,3.4c0,1.6 0.7,2.8 2.2,3.6c1.5,0.8 3.8,1.7 6.8,2.7c4.8,1.5 8.3,3.4 10.7,5.6c2.4,2.3 3.5,5.2 3.5,8.9c0,2.1 -0.4,4.1 -1.3,6z" class="st1"/>
 </g>
</svg>