<svg width="32.5" height="32.5" xmlns="http://www.w3.org/2000/svg" fill="#000000">
 <defs>
  <linearGradient gradientTransform="matrix(0.3163323700428009,0,0,0.3163323700428009,0.12408971786499023,-1.25083988904953)" gradientUnits="userSpaceOnUse" y2="10.687" y1="92.369" x2="70.302" x1="-11.379" id="svg_11">
   <stop offset="0.10753" stop-color="#C757BC"/>
   <stop offset="0.21383" stop-color="#D0609A"/>
   <stop offset="0.42537" stop-color="#E1725C"/>
   <stop offset="0.60485" stop-color="#EE7E2F"/>
   <stop offset="0.74303" stop-color="#F58613"/>
   <stop offset="0.82323" stop-color="#F88909"/>
  </linearGradient>
  <linearGradient gradientTransform="matrix(0.3163323700428009,0,0,0.3163323700428009,0.12408971786499023,-1.25083988904953)" gradientUnits="userSpaceOnUse" y2="78.116" y1="121.15" x2="79.126" x1="36.096" id="svg_10">
   <stop offset="0.09677" stop-color="#0095D5"/>
   <stop offset="0.30073" stop-color="#238AD9"/>
   <stop offset="0.62106" stop-color="#557BDE"/>
   <stop offset="0.86432" stop-color="#7472E2"/>
   <stop offset="1" stop-color="#806EE3"/>
  </linearGradient>
  <linearGradient gradientTransform="matrix(0.3163323700428009,0,0,0.3163323700428009,0.12408971786499023,-1.25083988904953)" gradientUnits="userSpaceOnUse" y2="-1.7296" y1="35.881" x2="33.105" x1="-4.5056" id="svg_9">
   <stop offset="0.09677" stop-color="#0095D5"/>
   <stop offset="0.30073" stop-color="#238AD9"/>
   <stop offset="0.62106" stop-color="#557BDE"/>
   <stop offset="0.86432" stop-color="#7472E2"/>
   <stop offset="1" stop-color="#806EE3"/>
  </linearGradient>
 </defs>
 <g>
  <title>Layer 1</title>
  <g stroke="null" id="svg_1" fill-rule="evenodd">
   <g stroke="null">
    <g stroke="null" fill="#231F20">
     <path stroke="null" d="m42.78151,0.13058l7.09059,0l-0.00001,14.08913l13.07623,-14.08913l8.56407,0l-13.1221,13.67473l13.7206,18.55542l-8.51788,0l-9.99136,-13.7206l-3.72956,3.86748l-0.00001,9.85312l-7.09059,0l0.00002,-32.23111l0,0.00095z"/>
     <path stroke="null" d="m68.34117,20.15916l0,-0.09177c0.00001,-7.09059 5.70948,-12.84626 13.39857,-12.84626c7.64322,0 13.30652,5.6633 13.30652,12.75389l0,0.09214c0,7.09059 -5.70948,12.84562 -13.39857,12.84562c-7.64322,0 -13.30652,-5.6633 -13.30652,-12.75389l0,0.00026zm19.79861,0l0,-0.09177c0,-3.63751 -2.62442,-6.81443 -6.49209,-6.81443c-4.00572,0 -6.40004,3.08478 -6.40004,6.72238l0,0.09214c-0.00001,3.63719 2.62442,6.81412 6.49209,6.81412c4.00572,0 6.40004,-3.08478 6.40004,-6.72238l0,-0.00005z"/>
     <path stroke="null" d="m96.97874,25.3622l0,-11.69481l-2.94676,0l0,-5.98564l2.94676,0l0.00001,-6.30798l6.99854,0l0,6.30798l5.80122,0l0,5.98564l-5.80122,0l0,10.54399c0,1.61121 0.69052,2.39426 2.25605,2.39426c1.28928,0 2.44035,-0.32231 3.45308,-0.87517l0,5.61743c-1.47338,0.87482 -3.17693,1.42729 -5.52506,1.42729c-4.28187,0 -7.18264,-1.70373 -7.18264,-7.41293l0.00002,-0.00006z"/>
     <path stroke="null" d="m111.78942,-1.25084l6.99854,0l-0.00002,33.61031l-6.99854,0l0.00001,-33.61031l0.00001,0z"/>
     <path stroke="null" d="m121.31735,-1.25084l7.36675,0l0,6.21593l-7.36675,0l0.00001,-6.21593l-0.00001,0zm0.18428,8.93228l6.99854,0l-0.00001,24.67899l-6.99854,0l0.00001,-24.67899l0,0z"/>
     <path stroke="null" d="m131.16161,7.68143l6.99854,0l0,3.49927c1.61159,-2.07195 3.68369,-3.95953 7.22883,-3.95953c5.29509,0 8.37996,3.49927 8.37996,9.16257l0,15.97668l-6.99854,0l0,-13.76678c0,-3.31485 -1.56572,-5.01861 -4.23601,-5.01861c-2.6707,0 -4.37393,1.70373 -4.37393,5.01861l-0.00001,13.76678l-6.99854,0l0.00001,-24.67899l-0.00032,0z"/>
    </g>
    <polygon stroke="null" fill="url(#svg_11)" points="16.35574185848236,0.11431819200515747 0.17681646347045898,17.128706991672516 0.17681646347045898,32.33734232187271 16.332647681236267,16.154707968235016 32.402647376060486,0.11431819200515747 "/>
    <polygon stroke="null" fill="url(#svg_10)" points="0.17682409286499023,32.33734232187271 16.332647681236267,16.154707968235016 32.402647376060486,32.33734232187271 "/>
    <polygon stroke="null" fill="url(#svg_9)" points="0.17683178186416626,0.11434108018875122 16.356054663658142,0.11434108018875122 0.17683178186416626,17.128706991672516 "/>
   </g>
  </g>
 </g>
</svg>