<svg width="373" height="253" xmlns="http://www.w3.org/2000/svg" version="1.1" xml:space="preserve">
 <g>
  <title>Layer 1</title>
  <path d="m371.55263,201.21579c0,27.6 -22.5,50 -50.3,50l-270,0c-27.8,0 -50.3,-22.4 -50.3,-50l0,-149.9c0,-27.6 22.5,-50 50.3,-50l270,0c27.8,0 50.3,22.4 50.3,50l0,149.9z" fill-rule="evenodd" clip-rule="evenodd" fill="#2046c1" id="svg_1"/>
  <path class="st2" d="m203.55263,200.81579c-0.8,0 -1.4,-0.4 -1.7,-1.2c0,-0.2 -0.2,-1 -0.5,-2.4s-0.7,-3.1 -1.1,-4.9c-0.4,-1.8 -0.7,-3.1 -0.8,-3.9c-0.3,-1.1 -0.5,-2.8 -0.6,-5c-0.1,-2.2 -0.1,-3.7 -0.1,-4.5c-1.4,2.4 -3.3,4.8 -5.5,7.3s-5,4.7 -8.4,6.8c-3.4,2.1 -7.2,3.8 -11.6,5.1c-4.4,1.3 -9.5,2 -15.2,2c-5.3,0 -10.6,-0.8 -15.8,-2.4c-5.3,-1.6 -10.1,-4.3 -14.4,-8.2c-4.3,-3.9 -7.8,-9.3 -10.6,-16.1c-2.7,-6.8 -4.1,-15.5 -4.1,-26l0,-65.6c0,-1 0.5,-1.4 1.4,-1.4l27.8,0c1,0 1.4,0.5 1.4,1.4l0,60.5c0,10 1.8,17.9 5.5,23.7c3.7,5.8 9.8,8.7 18.5,8.7c6.4,0 11.8,-1.8 16.3,-5.4c4.5,-3.6 7.6,-7.4 9.4,-11.6l-0.2,0c0.5,-1.3 0.9,-2.6 1.2,-4.1c0.3,-1.4 0.5,-3 0.5,-4.8l0,-67.3c0,-1 0.5,-1.4 1.4,-1.4l28.1,0c1,0 1.4,0.5 1.4,1.4l0,80.6c0,6.7 0.3,12.8 1,18.5c0.6,5.6 1.4,10.5 2.4,14.7c0.3,0.8 -0.1,1.3 -1.2,1.7l-24.5,3.8zm136.8,-22.6c-2.1,4.5 -5.3,8.5 -9.5,11.8c-4.2,3.3 -9.6,6 -16,7.9c-6.4,1.9 -13.9,2.9 -22.4,2.9c-7.8,0 -15.1,-0.8 -21.7,-2.5s-12.4,-3.8 -17.2,-6.3c-0.8,-0.3 -1.1,-0.8 -0.7,-1.4l6.1,-20.6c0.3,-1.1 1.1,-1.4 2.2,-0.7c3.4,2.2 8.1,4.3 14.1,6.1c6,1.8 11.8,2.7 17.5,2.7c7.2,0 12.3,-1.2 15.4,-3.5c3.1,-2.3 4.6,-5.3 4.6,-9c0,-3.8 -1.6,-6.9 -4.9,-9.2c-3.3,-2.3 -8.6,-4.6 -15.9,-6.8c-12.2,-3.7 -21.2,-8.5 -26.9,-14.5c-5.7,-6 -8.6,-12.6 -8.6,-20c0,-5.1 1.1,-9.9 3.3,-14.5c2.2,-4.5 5.3,-8.5 9.3,-11.8c4,-3.3 8.9,-6 14.8,-7.9c5.9,-1.9 12.6,-2.9 20.1,-2.9c7,0 13.5,0.7 19.3,2.1c5.9,1.4 10.7,3.2 14.4,5.3c0.8,0.5 1.1,1 0.7,1.7l-5.6,19.6c-0.3,0.9 -1.1,1.1 -2.2,0.5c-2.6,-1.3 -6.3,-2.7 -11,-4.4c-4.7,-1.7 -9.9,-2.5 -15.7,-2.5c-5.5,0 -9.7,1.1 -12.6,3.4c-2.9,2.2 -4.3,5 -4.3,8.4c0,3.8 1.8,6.8 5.4,8.8c3.6,2.1 9.1,4.3 16.6,6.7c11.6,3.7 20.2,8.3 25.9,13.9c5.7,5.6 8.6,12.9 8.6,22c0.1,5.3 -1,10.2 -3.1,14.7zm-257.1,39.5c-24.1,-8.9 -45.7,-23 -45.7,-55.6l0,-58.6l-17.5,0l0,-26.2l17.5,0l0,-30.9l34.5,0l0,30.9l22.3,0l0,26.2l-22.3,0l0,62c0,14.6 6.6,19.8 24.1,24.7l-12.9,27.5z" fill-rule="evenodd" clip-rule="evenodd" fill="#fbfafc" id="svg_3"/>
 </g>

</svg>